<svg xmlns="http://www.w3.org/2000/svg" width="180" height="32" viewBox="0 0 180 32">
  <defs>
    <style>
      .button-text { font-family: -apple-system, BlinkMacSystemFont, 'Segoe UI', Helvetica, Arial, sans-serif; font-size: 14px; font-weight: 500; fill: #000; }
    </style>
  </defs>
  <rect x="0.5" y="0.5" width="179" height="31" rx="6" fill="#fff" stroke="#e5e7eb" stroke-width="1"/>
  <g transform="translate(12, 8)">
    <svg fill="none" stroke="currentColor" stroke-width="21.3696" viewBox="0 0 153 179" xmlns="http://www.w3.org/2000/svg" width="16" height="16">
      <path d="M91.1385 71.1097C107.031 77.947 125.457 70.6065 132.294 54.7141C139.132 38.8217 131.791 20.3956 115.899 13.5582C100.006 6.72079 81.5803 14.0613 74.7429 29.9537C67.9055 45.8461 75.2461 64.2723 91.1385 71.1097ZM91.1385 71.1097L29.921 44.7722M5 102.256L33.9985 114.732C49.8909 121.57 68.317 114.229 75.1544 98.3367C81.9918 82.4443 74.6513 64.0182 58.7589 57.1808L29.7603 44.7048M148.655 95.8569L119.657 83.3808C103.764 76.5434 85.338 83.8839 78.5006 99.7763L78.5182 179" stroke="#000"/>
    </svg>
    <text class="button-text" x="24" y="12">View on bounty.new</text>
  </g>
</svg>
