<?xml version="1.0" encoding="UTF-8"?>
<svg id="Layer_2" data-name="Layer 2" xmlns="http://www.w3.org/2000/svg" viewBox="0 0 102.42 77.29">
  <defs>
    <style>
      .cls-1 {
        fill: #ebbb6f;
      }

      .cls-1, .cls-2 {
        stroke: #755522;
        stroke-miterlimit: 10;
      }

      .cls-2 {
        fill: none;
      }
    </style>
  </defs>
  <g id="Layer_1-2" data-name="Layer 1">
    <g>
      <path class="cls-1" d="m14.26.5h75.19c6.88,0,12.47,5.59,12.47,12.47v50.06c0,7.59-6.16,13.76-13.76,13.76H14.26c-7.59,0-13.76-6.16-13.76-13.76V14.26C.5,6.66,6.66.5,14.26.5Z"/>
      <path class="cls-2" d="m32.24,1.31c.96,2.77,2.08,7.09,2.01,12.45-.09,6.19-1.75,11.02-2.97,13.87"/>
      <path class="cls-2" d="m31.53,50.73c1.1,2.61,2.55,6.93,2.71,12.45.16,5.37-.96,9.67-1.88,12.32"/>
      <path class="cls-2" d="m31.27,27.24c1.15,2.25,3.17,6.96,2.97,13.16-.15,4.79-1.56,8.5-2.58,10.65"/>
      <line class="cls-2" x1="1.66" y1="27.63" x2="31.53" y2="27.63"/>
      <line class="cls-2" x1="37.66" y1="68.27" x2="64.63" y2="68.27"/>
      <line class="cls-2" x1="37.66" y1="9.76" x2="64.63" y2="9.76"/>
      <line class="cls-2" x1="1.66" y1="50.73" x2="31.53" y2="50.73"/>
      <path class="cls-2" d="m71.17,51.47c-1.1,2.61-2.55,6.93-2.71,12.45-.16,5.37.96,9.67,1.88,12.32"/>
      <path class="cls-2" d="m71.42,27.98c-1.15,2.25-3.17,6.96-2.97,13.16.15,4.79,1.56,8.5,2.58,10.65"/>
      <line class="cls-2" x1="101.04" y1="28.37" x2="71.17" y2="28.37"/>
      <line class="cls-2" x1="101.04" y1="51.47" x2="71.17" y2="51.47"/>
    </g>
  </g>
</svg>